<svg xmlns="http://www.w3.org/2000/svg" xmlns:svg="http://www.w3.org/2000/svg" id="svg38" width="86" height="86" enable-background="new 0 0 86 86" version="1.1" viewBox="0 0 86 86" xml:space="preserve"><metadata id="metadata2"/><defs id="defs30"><linearGradient id="linearGradient1056" x1="-.063" x2="85.818" y1="-.281" y2="86.182" gradientTransform="translate(-103.66 -61.623)" gradientUnits="userSpaceOnUse"><stop id="stop4" offset="0" stop-color="#4e00ff"/><stop id="stop6" offset=".643" stop-color="#8d00d6"/></linearGradient><mask id="mask1151" maskUnits="userSpaceOnUse"><g id="g27" transform="matrix(1.2364 0 0 1.2364 -152.87 -52.757)"><g id="g13" stroke-width=".809" transform="translate(-7.1975 -12.019)"><rect id="rect9" width="69.966" height="5.648" x="-52.288" y="-40.54" fill="#fff" style="paint-order:stroke fill markers" fill-opacity=".592" rx="1.474" ry="1.474" transform="scale(-1)"/><circle style="paint-order:normal" id="circle11" cx="-58.674" cy="-37.716" r="9.292" fill="#fff" transform="scale(-1)"/></g><g id="g19" stroke-width=".809" transform="rotate(180 43.045 40.348)"><rect id="rect15" width="69.966" height="5.648" x="-52.288" y="-40.54" fill="#fff" style="paint-order:stroke fill markers" fill-opacity=".592" rx="1.474" ry="1.474" transform="scale(-1)"/><circle style="paint-order:normal" id="circle17" cx="-58.674" cy="-37.716" r="9.292" fill="#fff" transform="scale(-1)"/></g><g id="g25" stroke-width=".809" transform="translate(-7.1975 22.244)"><rect id="rect21" width="69.966" height="5.648" x="-52.288" y="-40.54" fill="#fff" style="paint-order:stroke fill markers" fill-opacity=".592" rx="1.474" ry="1.474" transform="scale(-1)"/><circle style="paint-order:normal" id="circle23" cx="-58.674" cy="-37.716" r="9.292" fill="#fff" transform="scale(-1)"/></g></g></mask></defs><g id="g36"><path id="path32" fill="url(#linearGradient1056)" d="m0.301 1.723c0-0.786 0.637-1.423 1.423-1.423h41.276c23.583 0 42.7 19.117 42.7 42.7 0 23.582-19.117 42.7-42.7 42.7s-42.7-19.118-42.7-42.7c0-0.636 1e-3 -41.277 1e-3 -41.277z"/><path id="path34" fill="#fffffd" d="m-142.8-41.083c0-0.786 0.637-1.423 1.423-1.423h41.276c23.583 0 42.7 19.117 42.7 42.7 0 23.582-19.117 42.7-42.7 42.7-23.583 0-42.7-19.118-42.7-42.7 0-0.636 1e-3 -41.277 1e-3 -41.277z" mask="url(#mask1151)" transform="translate(143.1 42.806)"/></g></svg>