<svg xmlns="http://www.w3.org/2000/svg" xmlns:svg="http://www.w3.org/2000/svg" xmlns:xlink="http://www.w3.org/1999/xlink" id="svg2" width="64" height="64" version="1.1"><defs id="defs4"><linearGradient id="Jupii"><stop style="stop-color:#5a00f7;stop-opacity:1" id="stop1288" offset="0"/><stop style="stop-color:#8200dd;stop-opacity:1" id="stop1290" offset="1"/></linearGradient><linearGradient id="SVGID_1_" x1="12.806" x2="73.193" y1="12.807" y2="73.194" gradientTransform="translate(-24.964286,937.39789)" gradientUnits="userSpaceOnUse"><stop id="stop4163" offset=".005" style="stop-color:#1e9bff"/><stop id="stop4165" offset="1" style="stop-color:#00c8de"/></linearGradient><linearGradient id="linearGradient1294" x1="32.199" x2="31.946" y1="64" y2="0" gradientTransform="translate(3.7841797e-6)" gradientUnits="userSpaceOnUse" xlink:href="#Jupii"/></defs><metadata id="metadata7"/><g id="layer2" style="display:inline"><rect style="opacity:1;fill:url(#linearGradient1294);fill-opacity:1;fill-rule:nonzero;stroke:none;stroke-width:3;stroke-linecap:round;stroke-linejoin:round;stroke-miterlimit:4;stroke-dasharray:none;stroke-dashoffset:0;stroke-opacity:.59607843;paint-order:stroke fill markers" id="rect1286" width="64" height="64" x="0" y="0"/></g><g id="layer1" transform="translate(0,-988.36218)" style="display:inline"><g id="g1352" transform="matrix(0.63750202,0,0,0.64789222,11.599759,359.21964)" style="stroke-width:1.55599368"><path id="path1300" d="m 31.980468,994.6571 a 8,7.9549508 0 0 0 -8,7.9551 v 17.789 h 0.04883 a 8.0194702,7.9999995 0 0 0 7.970704,7.2129 8.0194702,7.9999995 0 0 0 8.019531,-8 8.0194702,7.9999995 0 0 0 -0.03906,-0.7285 v -16.2734 a 8,7.9549508 0 0 0 -8,-7.9551 z" style="opacity:1;fill:none;fill-opacity:1;fill-rule:nonzero;stroke:#fff;stroke-width:2.72298932;stroke-linecap:round;stroke-linejoin:round;stroke-miterlimit:4;stroke-dasharray:none;stroke-dashoffset:0;stroke-opacity:1;paint-order:stroke fill markers"/><path id="path1324" d="m 18.498047,23.511719 v 7.560547 -3.156727 c -0.0093,0.137903 -0.0047,3.432667 -0.0098,3.570789 5.66e-4,7.461766 6.049953,13.510279 13.511719,13.509766 7.461766,5.13e-4 13.511153,-6.048 13.511719,-13.509766 -0.0031,-0.138092 -0.0083,-0.276129 -0.01563,-0.414062 h 0.0078 v -7.560547" transform="translate(0,988.36218)" style="opacity:1;fill:none;fill-opacity:1;fill-rule:nonzero;stroke:#fff;stroke-width:2.72298884;stroke-linecap:round;stroke-linejoin:round;stroke-miterlimit:4;stroke-dasharray:none;stroke-dashoffset:0;stroke-opacity:1;paint-order:markers fill stroke"/><path id="path1331" d="M 23.156047,1045.7388 H 40.843953" style="fill:none;fill-rule:evenodd;stroke:#fff;stroke-width:2.72298884;stroke-linecap:round;stroke-linejoin:miter;stroke-miterlimit:4;stroke-dasharray:none;stroke-opacity:1"/><path id="path1331-6" d="m 32,1045.4079 v -12.0496" style="display:inline;fill:none;fill-rule:evenodd;stroke:#fff;stroke-width:2.72298861;stroke-linecap:round;stroke-linejoin:miter;stroke-miterlimit:4;stroke-dasharray:none;stroke-opacity:1"/></g></g></svg>