<svg xmlns="http://www.w3.org/2000/svg" xmlns:svg="http://www.w3.org/2000/svg" xmlns:xlink="http://www.w3.org/1999/xlink" id="svg2" width="64" height="64" version="1.1"><defs id="defs4"><linearGradient id="Jupii"><stop style="stop-color:#5a00f7;stop-opacity:1" id="stop1288" offset="0"/><stop style="stop-color:#8200dd;stop-opacity:1" id="stop1290" offset="1"/></linearGradient><linearGradient id="SVGID_1_" x1="12.806" x2="73.193" y1="12.807" y2="73.194" gradientTransform="translate(-24.964286,937.39789)" gradientUnits="userSpaceOnUse"><stop id="stop4163" offset=".005" style="stop-color:#1e9bff"/><stop id="stop4165" offset="1" style="stop-color:#00c8de"/></linearGradient><linearGradient id="linearGradient1294" x1="32.199" x2="31.946" y1="64" y2="0" gradientTransform="translate(3.7841797e-6)" gradientUnits="userSpaceOnUse" xlink:href="#Jupii"/></defs><metadata id="metadata7"/><g id="layer2"><rect style="opacity:1;fill:url(#linearGradient1294);fill-opacity:1;fill-rule:nonzero;stroke:none;stroke-width:3;stroke-linecap:round;stroke-linejoin:round;stroke-miterlimit:4;stroke-dasharray:none;stroke-dashoffset:0;stroke-opacity:.59607843;paint-order:stroke fill markers" id="rect1286" width="64" height="64" x="0" y="0"/></g><g id="layer1" transform="translate(0,-988.36218)" style="display:inline"><g id="g834" transform="matrix(0.65201117,0,0,0.64981656,10.536209,357.31965)" style="stroke-width:1.53630364"><path id="rect4545" d="m 32.5,11.947266 -12.310547,11.43164 h -6.443359 c -2.168545,0 -3.9140628,1.745518 -3.9140628,3.914063 v 9.216797 c 0,2.168545 1.7455178,3.914062 3.9140628,3.914062 h 6.261718 L 32.5,52.035156 Z" transform="translate(0,988.36218)" style="opacity:1;fill:none;fill-opacity:1;fill-rule:nonzero;stroke:#fff;stroke-width:3.07260728;stroke-linecap:round;stroke-linejoin:round;stroke-miterlimit:4;stroke-dasharray:none;stroke-dashoffset:0;stroke-opacity:1;paint-order:markers fill stroke"/><path id="path4561" d="m 37.471333,1012.3343 c 2.685209,1.8074 4.303574,4.8252 4.323486,8.062 0.01991,3.2368 -1.561229,6.2743 -4.224022,8.1146" style="opacity:1;fill:none;fill-opacity:1;fill-rule:nonzero;stroke:#fff;stroke-width:3.07260728;stroke-linecap:round;stroke-linejoin:round;stroke-miterlimit:4;stroke-dasharray:none;stroke-dashoffset:0;stroke-opacity:.62745098;paint-order:stroke fill markers"/><path id="path4561-6" d="m 41.847004,1008.6334 c 4.260781,2.621 6.828738,6.9969 6.860334,11.6904 0.0316,4.6936 -2.477295,9.0982 -6.702508,11.7667" style="display:inline;opacity:1;fill:none;fill-opacity:1;fill-rule:nonzero;stroke:#fff;stroke-width:3.07260728;stroke-linecap:round;stroke-linejoin:round;stroke-miterlimit:4;stroke-dasharray:none;stroke-dashoffset:0;stroke-opacity:.62745098;paint-order:stroke fill markers"/><path id="path4561-6-7" d="m 45.90435,1003.0917 c 6.274041,3.8595 10.055382,10.303 10.101908,17.2142 0.04653,6.9114 -3.647841,13.3973 -9.869508,17.3266" style="display:inline;opacity:1;fill:none;fill-opacity:1;fill-rule:nonzero;stroke:#fff;stroke-width:3.07260728;stroke-linecap:round;stroke-linejoin:round;stroke-miterlimit:4;stroke-dasharray:none;stroke-dashoffset:0;stroke-opacity:.62745098;paint-order:stroke fill markers"/></g></g></svg>