<svg xmlns="http://www.w3.org/2000/svg" xmlns:svg="http://www.w3.org/2000/svg" xmlns:xlink="http://www.w3.org/1999/xlink" style="fill-rule:evenodd;clip-rule:evenodd;stroke-linecap:round;stroke-linejoin:round;stroke-miterlimit:1.41421" id="svg883" width="5461" height="5461" version="1.1" xml:space="preserve"><metadata id="metadata889"/><defs id="defs887"><linearGradient id="linearGradient2235"><stop style="stop-color:#000;stop-opacity:1" id="stop2231" offset="0"/><stop style="stop-color:#3d3d3d;stop-opacity:1" id="stop2233" offset="1"/></linearGradient><radialGradient id="SVGID_1_" cx="40.409" cy="43.466" r="42.611" gradientTransform="matrix(0.015671,0,0,0.015671,0.33919035,0.29128379)" gradientUnits="userSpaceOnUse"><stop id="stop3679" offset="0" style="stop-color:#868688"/><stop id="stop3681" offset="1" style="stop-color:#dadada"/></radialGradient><clipPath id="clipPath20" clipPathUnits="userSpaceOnUse"><path id="path18" d="M 0,792 H 612 V 0 H 0 Z"/></clipPath><linearGradient id="linearGradient2237" x1="5461.004" x2="-2763.287" y1="5461.091" y2="-2745.66" gradientUnits="userSpaceOnUse" xlink:href="#linearGradient2235"/></defs><rect style="opacity:1;fill:url(#linearGradient2237);fill-opacity:1;fill-rule:nonzero;stroke:none;stroke-width:69.33000183;stroke-linecap:round;stroke-linejoin:bevel;stroke-miterlimit:1.41420996;stroke-dasharray:none;stroke-dashoffset:0;stroke-opacity:1;paint-order:markers fill stroke" id="rect1502" width="5461.009" height="5461.182" x="-.004" y="-.091"/><g id="g878" transform="matrix(4.4809913,0,0,4.4809913,8416.9071,-7915.088)" style="stroke-width:.23106781"><g id="g22" transform="matrix(22.361444,0,0,-22.361444,-1428.8908,1964.1928)" style="stroke-width:.01377775"><path style="fill:#ed1f24;fill-opacity:1;fill-rule:nonzero;stroke:none;stroke-width:.0133727" id="path24" d="M 0.21020155,-0.54104115 H 14.435332 c 2.214912,0 4.175527,-0.66389125 5.875049,-1.98973245 1.700494,-1.328753 2.55074,-2.6264468 2.55074,-3.8891989 0,-0.8939237 -0.314474,-1.625757 -0.939542,-2.1964705 -0.627979,-0.5736253 -1.321958,-0.8560702 -2.080969,-0.8560702 -0.98516,0 -1.881995,0.4474471 -2.691477,1.3452532 -0.810452,0.8948943 -1.657786,1.343312 -2.542004,1.343312 H 0.60426563 c -1.37631248,0 -2.06252753,-0.5610074 -2.06252753,-1.6859342 0,-0.7881282 0.4493884,-1.3850479 1.35010626,-1.7927008 L 16.374594,-17.68477 c 1.677198,-0.739598 3.050599,-1.930526 4.124084,-3.5689 1.072514,-1.643228 1.609257,-3.463105 1.609257,-5.461573 0,-2.667212 -0.944395,-4.92386 -2.829303,-6.773826 -1.887819,-1.852878 -4.027995,-2.77689 -6.420526,-2.77689 H 0.28105544 c -2.17220544,0 -4.18814414,0.654185 -6.04975714,1.970321 -1.8635543,1.316135 -2.7924196,2.595387 -2.7924196,3.832904 0,0.819187 0.3008863,1.544226 0.9026591,2.176087 0.6027433,0.632832 1.3850479,0.950219 2.3430312,0.950219 0.7871576,0 1.6296394,-0.448418 2.5274455,-1.345253 0.8987767,-0.896836 2.19549987,-1.345253 3.8950225,-1.345253 h 11.549184 c 0.910423,0 1.672345,0.349416 2.287706,1.053102 0.614391,0.700774 0.923042,1.507343 0.923042,2.417767 0,1.40349 -0.669715,2.414856 -2.006232,3.027305 l -16.6768699,7.508571 c -1.6034332,0.717274 -2.8360967,1.751935 -3.6989611,3.111748 -0.8618939,1.3569 -1.2938114,2.738066 -1.2938114,4.1473784 0,2.2217061 0.7687161,4.1464083 2.3100308,5.7760477 1.5393735,1.6286688 3.4427224,2.44397375 5.70907615,2.44397375"/></g></g></svg>